<?xml version="1.0" encoding="utf-8"?>
<svg xmlns="http://www.w3.org/2000/svg" viewBox="7.164 33.072 452.023 448.871" width="382.619px" height="447.762px" preserveAspectRatio="none">
  <rect x="7.749" y="33.382" width="450.829" height="448.261" style="fill-opacity: 0; fill: rgb(186, 218, 85); fill-rule: nonzero; paint-order: stroke; stroke: rgba(0, 0, 0, 0);"/>
  <path fill="#020203" opacity="1.000000" stroke="none" d="M 41.228 264 C 41.242 225.671 41.302 187.842 41.189 150.013 C 41.179 146.792 42.104 145.061 44.91 143.418 C 106.175 107.524 167.387 71.538 228.553 35.475 C 231.435 33.776 233.502 33.727 236.445 35.464 C 297.601 71.552 358.816 107.542 420.086 143.436 C 422.908 145.089 423.812 146.809 423.808 150.021 C 423.707 222.013 423.708 294.004 423.804 365.996 C 423.808 369.17 422.978 370.947 420.144 372.606 C 358.715 408.566 297.343 444.623 236.027 480.773 C 233.378 482.334 231.617 482.329 228.994 480.783 C 167.538 444.549 106.029 408.403 44.481 372.324 C 42.017 370.88 41.2 369.297 41.207 366.488 C 41.291 332.492 41.242 298.496 41.228 264" id="object-0" style="transform-box: fill-box; transform-origin: 50% 50%;" transform="matrix(0.999997, 0.002349, -0.002349, 0.999997, 0, 0)"/>
  <path fill="#E5522C" opacity="1.000000" stroke="none" d="M 79.261 252.298 C 82.204 178.297 139.354 116.81 212.017 109.002 C 292.91 100.309 364.317 153.572 377.724 233.913 C 391.149 314.357 338.268 388.869 260.227 404.929 C 178.908 421.664 101.057 371.276 82.962 290.424 C 80.229 278.21 80.414 265.343 79.261 252.298 M 239.193 170.671 C 236.842 164.621 234.538 158.553 232.131 152.525 C 228.766 144.101 225.901 135.645 229.247 126.022 C 226.712 126.995 224.371 128.088 222.702 129.826 C 215.663 137.157 213.162 146.284 212.33 156.195 C 211.608 164.792 210.799 173.462 208.937 181.858 C 207.433 188.641 204.303 195.064 201.894 201.646 C 201.358 201.499 200.823 201.351 200.288 201.203 C 200.212 199.791 200.19 198.372 200.052 196.965 C 199.036 186.64 197.567 176.374 191.917 167.4 C 190.05 164.434 187.06 162.174 184.584 159.591 C 184.172 159.913 183.761 160.235 183.349 160.556 C 185.955 170.17 184.166 179.396 181.065 188.478 C 178.108 197.138 174.938 205.727 172.062 214.414 C 164.985 235.787 167.223 255.768 181.272 273.901 C 181.419 274.091 181.319 274.472 181.353 275.111 C 166.702 271.97 152.15 268.85 136.858 265.572 C 141.349 280.191 149.338 291.553 158.534 302.147 C 159.373 303.114 161.571 303.193 163.138 303.195 C 207.293 303.248 251.448 303.283 295.603 303.11 C 297.884 303.101 301.06 301.863 302.284 300.119 C 308.187 291.709 313.671 282.995 319.055 274.236 C 320.448 271.97 320.942 269.151 322.232 265.503 C 305.553 268.816 290.062 271.894 273.498 275.185 C 283.976 261.837 288.066 247.646 287.102 231.877 C 286.335 219.342 282.487 207.873 276.83 196.705 C 272.505 188.165 268.523 179.244 266.051 170.045 C 264.421 163.981 265.742 157.124 265.742 149.789 C 250.507 168.116 250.836 190.56 247.329 210.444 C 244.813 198.034 242.116 184.73 239.193 170.671 M 238.692 316.344 C 212.272 316.344 185.851 316.344 159.278 316.344 C 159.278 325.185 159.278 333.406 159.278 341.778 C 206.298 341.778 252.986 341.778 299.83 341.778 C 299.83 333.255 299.83 325.035 299.83 316.344 C 279.575 316.344 259.634 316.344 238.692 316.344 M 188.571 363.946 C 197.406 383.87 220.802 393.56 243.854 386.843 C 260.8 381.906 273.606 366.819 271.522 354.12 C 243.47 354.12 215.401 354.12 186.597 354.12 C 187.22 357.438 187.76 360.312 188.571 363.946 Z" id="object-1"/>
</svg>