<svg version="1.1" id="Layer_1" xmlns="http://www.w3.org/2000/svg" xmlns:xlink="http://www.w3.org/1999/xlink" x="0px" y="0px"
	 width="100%" viewBox="0 0 888 509" enable-background="new 0 0 888 509" xml:space="preserve">
<path fill="#FFFFFF" opacity="1.000000" stroke="none" 
	d="
M640.000000,510.000000 
	C426.704712,510.000000 213.909454,510.000000 1.057086,510.000000 
	C1.057086,340.401733 1.057086,170.803467 1.057086,1.102595 
	C296.878662,1.102595 592.757324,1.102595 888.817993,1.102595 
	C888.817993,170.666504 888.817993,340.333252 888.817993,510.000000 
	C806.136719,510.000000 723.318359,510.000000 640.000000,510.000000 
M41.228134,264.499908 
	C41.242252,298.496002 41.290955,332.492218 41.206783,366.488068 
	C41.199825,369.297150 42.017277,370.879547 44.481342,372.323975 
	C106.029274,408.402557 167.537704,444.548615 228.994308,480.782501 
	C231.616943,482.328735 233.378235,482.334320 236.026566,480.772949 
	C297.343414,444.622894 358.715393,408.566254 420.143768,372.606110 
	C422.977905,370.947021 423.808380,369.169891 423.804138,365.995972 
	C423.708160,294.004456 423.706787,222.012741 423.807739,150.021240 
	C423.812225,146.808990 422.907928,145.088974 420.086151,143.435913 
	C358.815521,107.542046 297.600952,71.552307 236.444916,35.463531 
	C233.502075,33.726929 231.434586,33.776054 228.553391,35.474792 
	C167.387207,71.537987 106.175369,107.523911 44.909618,143.417679 
	C42.103840,145.061493 41.179230,146.791580 41.188850,150.013290 
	C41.301819,187.841858 41.242111,225.670929 41.228134,264.499908 
M582.551392,229.417297 
	C582.551392,232.185196 582.551392,234.953110 582.551392,237.742889 
	C585.274658,237.742889 587.364563,237.742889 589.888062,237.742889 
	C589.888062,236.341278 589.886536,235.212448 589.888367,234.083618 
	C589.900269,226.927994 589.734131,219.766098 589.985229,212.618866 
	C590.165955,207.474670 593.699646,204.349091 598.737976,204.209213 
	C603.217651,204.084839 605.665833,206.752106 606.124451,212.372543 
	C606.273010,214.192963 606.274963,216.028305 606.279724,217.856979 
	C606.296753,224.469772 606.286377,231.082657 606.286377,237.783630 
	C608.992981,237.783630 611.096924,237.783630 613.395874,237.783630 
	C613.517334,236.774124 613.694641,235.974045 613.697449,235.173355 
	C613.724121,227.518250 613.587341,219.859726 613.777710,212.209137 
	C613.889709,207.709671 617.230652,204.557800 621.842224,204.277069 
	C626.472473,203.995193 628.951111,206.481308 629.520142,210.938095 
	C629.792297,213.069824 629.942322,215.230148 629.959656,217.379028 
	C630.014221,224.149963 629.979797,230.921631 629.979797,237.706207 
	C632.606201,237.706207 634.658447,237.706207 636.905212,237.706207 
	C636.905212,228.102631 637.205688,218.797180 636.813416,209.521027 
	C636.479492,201.624924 630.381958,196.555695 622.602417,197.814224 
	C618.740662,198.438965 615.151733,200.749817 611.040833,202.464050 
	C604.175781,196.152908 599.100830,195.811035 590.256775,201.686935 
	C589.535339,196.036057 585.818176,198.741882 582.551941,198.651199 
	C582.551941,208.849548 582.551941,218.643448 582.551392,229.417297 
M487.264740,323.977264 
	C499.705200,323.345154 504.430481,318.192322 503.091888,307.028137 
	C502.365967,300.973694 498.064880,298.735291 492.613403,297.264069 
	C500.216492,292.924011 502.285034,288.964142 500.816528,282.294678 
	C499.647888,276.987122 495.584625,273.575958 488.635529,273.174896 
	C481.564178,272.766785 474.450928,273.084686 467.255951,273.084686 
	C467.255951,290.174683 467.255951,306.874451 467.255951,323.980255 
	C473.764893,323.980255 480.041809,323.980255 487.264740,323.977264 
M466.558960,234.145309 
	C466.334198,240.986115 470.851257,237.129044 474.131744,237.843704 
	C474.131744,230.875412 474.131744,224.476227 474.131744,218.442047 
	C480.462311,217.852814 486.372589,217.923019 491.966766,216.627899 
	C499.264496,214.938354 503.370575,207.869247 502.665131,200.067688 
	C501.951324,192.173141 497.243317,186.788559 489.445526,186.242035 
	C482.017578,185.721436 474.524475,186.129868 466.559265,186.129868 
	C466.559265,201.982697 466.559265,217.601532 466.558960,234.145309 
M723.887817,201.738297 
	C723.428711,195.664474 722.969543,189.590637 722.514587,183.571396 
	C720.292175,183.571396 718.363342,183.571396 716.357910,183.571396 
	C716.357910,201.862305 716.357910,219.869507 716.357910,237.787827 
	C718.681274,237.787827 720.625122,237.787827 723.032471,237.787827 
	C723.032471,229.787201 722.840210,222.002716 723.092163,214.232651 
	C723.300598,207.806747 727.696289,203.795914 733.600403,204.030670 
	C739.190491,204.252945 741.274353,207.064529 741.285156,214.449356 
	C741.296570,222.210861 741.287659,229.972382 741.287659,237.749268 
	C744.054565,237.749268 746.150391,237.749268 748.712219,237.749268 
	C748.712219,229.369324 748.638306,221.249878 748.737000,213.132553 
	C748.808289,207.268967 747.507690,201.984009 741.822937,199.289612 
	C735.827271,196.447861 729.871948,196.876984 723.887817,201.738297 
M667.191040,198.146240 
	C656.794861,196.723495 650.098206,199.843445 646.962646,207.570572 
	C643.102295,217.083954 645.572388,230.616180 651.832581,235.355728 
	C658.548950,240.440704 672.911316,239.310837 677.905273,233.571579 
	C677.041260,232.139969 676.132874,230.634933 675.250244,229.172409 
	C661.135010,235.077118 652.905334,232.097031 653.089600,220.799545 
	C661.621521,220.799545 670.182007,220.799545 678.659912,220.799545 
	C679.923279,207.639664 677.295776,202.292175 667.191040,198.146240 
M782.171814,231.092880 
	C771.265076,234.343201 764.748474,230.695099 764.918823,220.817108 
	C773.440369,220.817108 781.992004,220.817108 790.886841,220.817108 
	C790.886841,218.570663 790.901855,216.933212 790.884399,215.296127 
	C790.768616,204.457962 784.867920,197.973312 774.777161,197.585297 
	C764.772827,197.200592 757.853027,203.845108 757.215454,214.574539 
	C757.058044,217.223511 757.051819,219.909012 757.292969,222.548798 
	C757.926880,229.489914 760.686401,235.225998 767.786072,237.465271 
	C775.599915,239.929779 782.998474,238.795609 789.959900,233.912201 
	C788.722351,231.980545 787.768066,230.490936 786.796021,228.973724 
	C785.296936,229.703995 784.115784,230.279419 782.171814,231.092880 
M667.814270,324.155487 
	C675.770203,322.390503 679.641479,318.159302 680.115295,310.229492 
	C680.362305,306.093933 680.362427,301.912903 680.063782,297.782074 
	C679.486450,289.797760 674.276306,284.646820 666.423645,285.103790 
	C662.156311,285.352142 657.986816,287.281769 653.631104,288.492523 
	C653.631104,283.225189 653.631104,276.987000 653.631104,270.754333 
	C651.525208,270.754333 649.805908,270.754333 648.166748,270.754333 
	C648.166748,288.684418 648.166748,306.256439 648.166748,323.780151 
	C651.573364,324.364319 654.501648,324.573883 654.124084,321.395203 
	C658.428467,322.339386 662.732239,323.283478 667.814270,324.155487 
M549.246155,237.492508 
	C552.845398,237.740311 556.528748,238.596878 560.026978,238.113571 
	C568.179443,236.987259 572.828918,231.650360 573.763916,223.373413 
	C575.243225,210.279602 572.028625,202.318497 563.931641,199.023254 
	C551.481384,193.956345 539.887268,200.677841 538.521667,213.955414 
	C538.168884,217.385971 538.427551,220.933487 538.835510,224.376297 
	C539.554932,230.447098 542.724121,234.871216 549.246155,237.492508 
M806.476807,213.500977 
	C806.476807,208.549286 806.476807,203.597580 806.476807,198.576324 
	C803.710876,198.576324 801.628784,198.576324 799.205627,198.576324 
	C799.205627,208.172775 798.765198,217.492310 799.333008,226.750015 
	C799.870117,235.507706 807.853882,240.536575 816.696838,238.284149 
	C819.197876,237.647095 821.507874,236.259827 823.923218,235.208893 
	C825.186768,239.805588 828.513672,237.768845 831.390503,237.717834 
	C831.390503,224.456024 831.390503,211.551407 831.390503,198.554489 
	C828.950867,198.554489 826.865845,198.554489 824.504150,198.554489 
	C824.413574,199.940292 824.280396,201.072952 824.275024,202.206207 
	C824.241089,209.370483 824.404175,216.540543 824.163818,223.697342 
	C823.990723,228.853119 819.771729,232.290054 814.367249,232.217163 
	C809.139893,232.146683 806.879944,229.869339 806.533630,223.989120 
	C806.347839,220.833847 806.484863,217.659576 806.476807,213.500977 
M847.643982,198.940536 
	C842.682495,200.786652 840.151794,204.404770 840.338257,209.648422 
	C840.531250,215.077240 844.020142,218.000351 848.825623,219.525528 
	C851.832092,220.479752 855.158081,220.678131 857.925293,222.052139 
	C859.952209,223.058563 862.424744,225.262726 862.708435,227.221344 
	C863.204956,230.649078 859.956177,232.221420 857.027100,231.986481 
	C852.174072,231.597168 847.383545,230.428818 841.765625,229.448990 
	C841.367126,230.133240 840.408081,231.779877 839.176697,233.894043 
	C846.712463,238.390839 854.178528,240.160797 862.300842,237.328781 
	C867.103638,235.654221 870.136047,232.417892 870.173706,226.979767 
	C870.212830,221.341003 868.085022,218.083099 862.452393,216.131027 
	C859.167664,214.992630 855.519531,214.787048 852.380371,213.387131 
	C850.491211,212.544678 849.265930,210.213745 847.742249,208.551758 
	C849.606812,207.023010 851.426941,204.281967 853.344910,204.211731 
	C857.661255,204.053650 862.026123,205.219147 866.810791,205.909378 
	C867.379089,204.883026 868.244690,203.319702 869.219910,201.558380 
	C862.476379,197.329712 855.599365,196.764236 847.643982,198.940536 
M606.900513,314.463928 
	C606.900513,317.574066 606.900513,320.684235 606.900513,324.048706 
	C609.224121,323.925568 610.952942,323.833954 612.766418,323.737854 
	C613.492920,316.943085 610.505554,309.300690 619.122742,305.445404 
	C622.142151,309.926239 625.594238,314.414459 628.331726,319.302795 
	C630.727722,323.581390 633.783936,324.930206 638.772278,323.483002 
	C633.419250,315.753845 628.192810,308.207397 622.048889,299.336273 
	C627.063965,294.792236 631.904907,290.405975 636.855652,285.920258 
	C632.477539,284.720612 629.419800,286.018951 626.615967,289.288361 
	C622.501343,294.086273 617.947144,298.507233 612.657654,304.056702 
	C612.657654,291.939911 612.657654,281.365997 612.657654,270.735138 
	C610.567139,270.735138 608.843384,270.735138 606.900513,270.735138 
	C606.900513,285.204987 606.900513,299.340454 606.900513,314.463928 
M559.019592,305.521423 
	C559.019165,303.021515 559.036560,300.521423 559.014954,298.021698 
	C558.951843,290.718719 555.482178,286.234100 548.469299,285.145752 
	C542.047913,284.149231 536.018677,285.370636 530.644104,289.749298 
	C531.641968,291.134644 532.495850,292.320129 533.406860,293.584869 
	C538.852356,290.746338 544.459717,287.759491 549.925476,291.653412 
	C552.147827,293.236664 552.616211,297.281738 554.009033,300.498474 
	C547.271912,301.019135 541.942444,301.099060 536.732239,301.928192 
	C531.650696,302.736877 529.185669,306.340210 528.917969,311.432861 
	C528.562866,318.190796 530.204041,321.672455 535.538574,323.356171 
	C541.295288,325.173157 547.044189,325.224670 551.682312,320.284180 
	C551.977295,319.969971 552.436462,319.809937 552.867371,319.549011 
	C553.142334,321.086212 553.390991,322.476105 553.613281,323.718842 
	C555.599976,323.718842 557.173218,323.718842 559.019592,323.718842 
	C559.019592,317.810333 559.019592,312.162048 559.019592,305.521423 
M687.891052,303.579346 
	C687.624268,310.567657 687.951660,317.537292 694.685242,321.664001 
	C701.080322,325.583344 708.134033,325.711456 714.552551,321.910583 
	C722.952087,316.936707 722.346680,308.314117 721.840149,300.169891 
	C721.432922,293.623749 718.577332,288.238007 711.931152,286.032440 
	C700.577942,282.264832 687.249512,287.023712 687.891052,303.579346 
M690.247437,193.611160 
	C690.148193,195.055252 690.048950,196.499344 689.951416,197.918320 
	C687.785522,198.185822 686.015198,198.404480 684.190918,198.629791 
	C684.190918,200.664536 684.190918,202.441299 684.190918,204.439957 
	C686.155212,204.644928 687.921936,204.829269 690.247803,205.071976 
	C690.247803,211.824677 690.212158,218.444016 690.255554,225.062866 
	C690.335693,237.280716 697.369568,241.802765 708.995911,236.744995 
	C708.568787,235.143906 708.126465,233.485443 707.706909,231.912720 
	C705.535400,232.031906 703.658447,232.654434 702.284668,232.077972 
	C700.592224,231.367828 698.130859,229.720840 698.060547,228.371460 
	C697.657227,220.631409 697.864319,212.859558 697.864319,204.966476 
	C701.564636,204.800385 704.660828,204.661407 707.803345,204.520355 
	C707.803345,202.319473 707.803345,200.544525 707.803345,198.531586 
	C704.369995,198.320755 701.150757,198.123062 697.506042,197.899246 
	C697.506042,194.450058 697.506042,191.523743 697.506042,188.540451 
	C694.941772,188.540451 692.853210,188.540451 690.491760,188.540451 
	C690.399841,190.106628 690.323914,191.400848 690.247437,193.611160 
M747.622925,312.964233 
	C748.846985,315.133026 750.060791,317.307678 751.296997,319.469513 
	C754.246948,324.628143 754.251221,324.625702 760.732117,323.252075 
	C757.221191,317.722443 753.581421,312.375153 750.426270,306.755829 
	C749.613708,305.308716 749.635742,302.610443 750.462219,301.166840 
	C753.393311,296.046539 756.838074,291.220245 760.246216,286.042511 
	C756.185486,284.920654 753.562134,285.400848 751.715698,289.215515 
	C749.886414,292.994720 747.332642,296.423248 744.863708,300.378906 
	C742.564331,296.553833 740.423523,293.551971 738.871521,290.271545 
	C736.855103,286.009552 734.017029,284.391205 729.163696,286.124725 
	C733.124268,292.181519 736.986633,298.088165 740.817322,303.946320 
	C736.579529,310.621429 732.525085,317.007629 728.401428,323.502869 
	C733.156677,325.030029 735.675232,323.461029 737.542847,319.522888 
	C739.438354,315.525909 742.008911,311.849091 744.492310,307.682281 
	C745.543030,309.517578 746.363159,310.950073 747.622925,312.964233 
M575.689575,321.978546 
	C583.691650,325.883392 591.363892,325.025299 599.153809,320.462402 
	C598.185303,318.859833 597.354675,317.485443 596.537354,316.133026 
	C580.384338,323.724274 573.956055,315.889832 574.807922,303.223114 
	C575.581238,291.725739 582.189636,287.064087 592.862122,291.679138 
	C593.726135,292.052734 594.558289,292.499664 595.543091,292.979675 
	C596.446350,291.503174 597.196899,290.276306 597.934998,289.069916 
	C588.777039,282.631531 577.185303,283.646729 571.838379,291.139709 
	C566.406860,298.751221 568.145569,315.147949 575.689575,321.978546 
M532.609131,204.414948 
	C533.194824,202.568451 533.780518,200.721954 534.410400,198.735931 
	C527.775879,196.306671 522.702820,198.192902 518.014526,203.023239 
	C518.261963,196.027359 514.084717,198.668884 510.811737,198.617157 
	C510.811737,211.866257 510.811737,224.766953 510.811737,237.790710 
	C513.175049,237.790710 515.276001,237.790710 517.886597,237.790710 
	C517.886597,231.128067 517.880493,224.685196 517.887939,218.242325 
	C517.900574,207.317078 521.142822,204.242828 532.609131,204.414948 
M518.925903,290.500244 
	C518.925903,283.920074 518.925903,277.339905 518.925903,270.732788 
	C516.541870,270.732788 514.822571,270.732788 513.170044,270.732788 
	C513.170044,288.632324 513.170044,306.188843 513.170044,324.028717 
	C515.186523,323.928558 516.912292,323.842804 518.925903,323.742767 
	C518.925903,312.727203 518.925903,302.113678 518.925903,290.500244 
z"/>
<path fill="#020203" opacity="1.000000" stroke="none" 
	d="
M41.228039,263.999878 
	C41.242111,225.670929 41.301819,187.841858 41.188850,150.013290 
	C41.179230,146.791580 42.103840,145.061493 44.909618,143.417679 
	C106.175369,107.523911 167.387207,71.537987 228.553391,35.474792 
	C231.434586,33.776054 233.502075,33.726929 236.444916,35.463531 
	C297.600952,71.552307 358.815521,107.542046 420.086151,143.435913 
	C422.907928,145.088974 423.812225,146.808990 423.807739,150.021240 
	C423.706787,222.012741 423.708160,294.004456 423.804138,365.995972 
	C423.808380,369.169891 422.977905,370.947021 420.143768,372.606110 
	C358.715393,408.566254 297.343414,444.622894 236.026566,480.772949 
	C233.378235,482.334320 231.616943,482.328735 228.994308,480.782501 
	C167.537704,444.548615 106.029274,408.402557 44.481342,372.323975 
	C42.017277,370.879547 41.199825,369.297150 41.206783,366.488068 
	C41.290955,332.492218 41.242252,298.496002 41.228039,263.999878 
M79.056931,252.628784 
	C80.221687,265.193451 80.036362,278.060242 82.769737,290.273834 
	C100.864319,371.126373 178.715576,421.514191 260.034851,404.779022 
	C338.075104,388.718658 390.956482,314.207184 377.531616,233.762589 
	C364.124084,153.421982 292.717194,100.158951 211.824280,108.851959 
	C139.161652,116.660515 82.011597,178.146820 79.056931,252.628784 
z"/>
<path fill="#E75935" opacity="1.000000" stroke="none" 
	d="
M582.551636,228.927307 
	C582.551941,218.643448 582.551941,208.849548 582.551941,198.651199 
	C585.818176,198.741882 589.535339,196.036057 590.258179,201.682922 
	C599.100830,195.811035 604.175781,196.152908 611.040833,202.464050 
	C615.151733,200.749817 618.740662,198.438965 622.602417,197.814224 
	C630.381958,196.555695 636.479492,201.624924 636.813416,209.521027 
	C637.205688,218.797180 636.905212,228.102631 636.905212,237.706207 
	C634.658447,237.706207 632.606201,237.706207 629.979797,237.706207 
	C629.979797,230.921631 630.014221,224.149963 629.959656,217.379028 
	C629.942322,215.230148 629.792297,213.069824 629.520142,210.938095 
	C628.951111,206.481308 626.472473,203.995193 621.842224,204.277069 
	C617.230652,204.557800 613.889709,207.709671 613.777710,212.209137 
	C613.587341,219.859726 613.724121,227.518250 613.697449,235.173355 
	C613.694641,235.974045 613.517334,236.774124 613.395874,237.783630 
	C611.096924,237.783630 608.992981,237.783630 606.286377,237.783630 
	C606.286377,231.082657 606.296753,224.469772 606.279724,217.856979 
	C606.274963,216.028305 606.273010,214.192963 606.124451,212.372543 
	C605.665833,206.752106 603.217651,204.084839 598.737976,204.209213 
	C593.699646,204.349091 590.165955,207.474670 589.985229,212.618866 
	C589.734131,219.766098 589.900269,226.927994 589.888367,234.083618 
	C589.886536,235.212448 589.888062,236.341278 589.888062,237.742889 
	C587.364563,237.742889 585.274658,237.742889 582.551392,237.742889 
	C582.551392,234.953110 582.551392,232.185196 582.551636,228.927307 
z"/>
<path fill="#070707" opacity="1.000000" stroke="none" 
	d="
M486.791748,323.978760 
	C480.041809,323.980255 473.764893,323.980255 467.255951,323.980255 
	C467.255951,306.874451 467.255951,290.174683 467.255951,273.084686 
	C474.450928,273.084686 481.564178,272.766785 488.635529,273.174896 
	C495.584625,273.575958 499.647888,276.987122 500.816528,282.294678 
	C502.285034,288.964142 500.216492,292.924011 492.613403,297.264069 
	C498.064880,298.735291 502.365967,300.973694 503.091888,307.028137 
	C504.430481,318.192322 499.705200,323.345154 486.791748,323.978760 
M492.800079,317.670166 
	C497.882202,315.260071 497.335175,310.750275 496.756866,306.437958 
	C496.203278,302.309814 492.965424,300.479492 489.344788,300.197449 
	C484.097626,299.788666 478.794952,300.092743 473.398010,300.092743 
	C473.398010,306.363342 473.398010,312.417877 473.398010,319.226166 
	C479.833801,318.776855 485.924072,318.351624 492.800079,317.670166 
M473.857849,278.165680 
	C473.515259,283.659271 473.172638,289.152893 472.839386,294.496277 
	C478.516968,294.496277 483.368500,294.963898 488.086060,294.369019 
	C493.126343,293.733429 495.184967,290.234039 494.871338,285.054230 
	C494.577942,280.208099 491.532379,278.421204 487.289429,278.184967 
	C483.136566,277.953766 478.963867,278.077911 473.857849,278.165680 
z"/>
<path fill="#E75834" opacity="1.000000" stroke="none" 
	d="
M466.559113,233.682831 
	C466.559265,217.601532 466.559265,201.982697 466.559265,186.129868 
	C474.524475,186.129868 482.017578,185.721436 489.445526,186.242035 
	C497.243317,186.788559 501.951324,192.173141 502.665131,200.067688 
	C503.370575,207.869247 499.264496,214.938354 491.966766,216.627899 
	C486.372589,217.923019 480.462311,217.852814 474.131744,218.442047 
	C474.131744,224.476227 474.131744,230.875412 474.131744,237.843704 
	C470.851257,237.129044 466.334198,240.986115 466.559113,233.682831 
M474.027435,210.328781 
	C479.345337,210.354797 484.799438,211.128830 489.942017,210.192200 
	C494.884460,209.292053 495.344818,204.556244 495.109375,200.151031 
	C494.880280,195.865051 492.564636,193.130478 488.445831,192.757080 
	C483.734253,192.329971 478.954193,192.658157 473.898651,192.658157 
	C473.898651,198.428375 473.898651,203.892685 474.027435,210.328781 
z"/>
<path fill="#E75935" opacity="1.000000" stroke="none" 
	d="
M724.225769,201.531219 
	C729.871948,196.876984 735.827271,196.447861 741.822937,199.289612 
	C747.507690,201.984009 748.808289,207.268967 748.737000,213.132553 
	C748.638306,221.249878 748.712219,229.369324 748.712219,237.749268 
	C746.150391,237.749268 744.054565,237.749268 741.287659,237.749268 
	C741.287659,229.972382 741.296570,222.210861 741.285156,214.449356 
	C741.274353,207.064529 739.190491,204.252945 733.600403,204.030670 
	C727.696289,203.795914 723.300598,207.806747 723.092163,214.232651 
	C722.840210,222.002716 723.032471,229.787201 723.032471,237.787827 
	C720.625122,237.787827 718.681274,237.787827 716.357910,237.787827 
	C716.357910,219.869507 716.357910,201.862305 716.357910,183.571396 
	C718.363342,183.571396 720.292175,183.571396 722.514587,183.571396 
	C722.969543,189.590637 723.428711,195.664474 724.225769,201.531219 
z"/>
<path fill="#E75A36" opacity="1.000000" stroke="none" 
	d="
M667.572266,198.229248 
	C677.295776,202.292175 679.923279,207.639664 678.659912,220.799545 
	C670.182007,220.799545 661.621521,220.799545 653.089600,220.799545 
	C652.905334,232.097031 661.135010,235.077118 675.250244,229.172409 
	C676.132874,230.634933 677.041260,232.139969 677.905273,233.571579 
	C672.911316,239.310837 658.548950,240.440704 651.832581,235.355728 
	C645.572388,230.616180 643.102295,217.083954 646.962646,207.570572 
	C650.098206,199.843445 656.794861,196.723495 667.572266,198.229248 
M668.254456,214.985901 
	C669.490845,214.861282 670.727234,214.736649 671.925720,214.615845 
	C671.817200,207.165894 668.054504,203.372147 661.666870,203.898300 
	C655.749878,204.385666 652.396912,208.765457 653.386963,214.719833 
	C653.706299,214.795273 654.025208,214.934464 654.345032,214.936508 
	C658.667114,214.964157 662.989258,214.972748 668.254456,214.985901 
z"/>
<path fill="#E75935" opacity="1.000000" stroke="none" 
	d="
M782.553223,230.973846 
	C784.115784,230.279419 785.296936,229.703995 786.796021,228.973724 
	C787.768066,230.490936 788.722351,231.980545 789.959900,233.912201 
	C782.998474,238.795609 775.599915,239.929779 767.786072,237.465271 
	C760.686401,235.225998 757.926880,229.489914 757.292969,222.548798 
	C757.051819,219.909012 757.058044,217.223511 757.215454,214.574539 
	C757.853027,203.845108 764.772827,197.200592 774.777161,197.585297 
	C784.867920,197.973312 790.768616,204.457962 790.884399,215.296127 
	C790.901855,216.933212 790.886841,218.570663 790.886841,220.817108 
	C781.992004,220.817108 773.440369,220.817108 764.918823,220.817108 
	C764.748474,230.695099 771.265076,234.343201 782.553223,230.973846 
M776.916565,204.079208 
	C768.232727,203.570511 764.125427,207.208755 764.958435,214.769150 
	C771.218018,214.769150 777.485901,214.769150 783.868042,214.769150 
	C784.040161,209.767822 782.423157,206.115051 776.916565,204.079208 
z"/>
<path fill="#0A0A0A" opacity="1.000000" stroke="none" 
	d="
M667.425171,324.191528 
	C662.732239,323.283478 658.428467,322.339386 654.124084,321.395203 
	C654.501648,324.573883 651.573364,324.364319 648.166748,323.780151 
	C648.166748,306.256439 648.166748,288.684418 648.166748,270.754333 
	C649.805908,270.754333 651.525208,270.754333 653.631104,270.754333 
	C653.631104,276.987000 653.631104,283.225189 653.631104,288.492523 
	C657.986816,287.281769 662.156311,285.352142 666.423645,285.103790 
	C674.276306,284.646820 679.486450,289.797760 680.063782,297.782074 
	C680.362427,301.912903 680.362305,306.093933 680.115295,310.229492 
	C679.641479,318.159302 675.770203,322.390503 667.425171,324.191528 
M654.396606,313.415710 
	C658.363953,318.626251 662.504272,320.485291 667.665222,318.870667 
	C672.736084,317.284241 674.107117,313.041626 674.254883,308.287811 
	C674.347290,305.314453 674.355957,302.310303 674.041809,299.358307 
	C673.365479,293.003052 669.743713,289.737518 664.032227,290.016937 
	C658.155518,290.304443 654.083740,294.258118 653.913818,300.159393 
	C653.794373,304.310425 654.023254,308.471527 654.396606,313.415710 
z"/>
<path fill="#E75935" opacity="1.000000" stroke="none" 
	d="
M548.881775,237.354248 
	C542.724121,234.871216 539.554932,230.447098 538.835510,224.376297 
	C538.427551,220.933487 538.168884,217.385971 538.521667,213.955414 
	C539.887268,200.677841 551.481384,193.956345 563.931641,199.023254 
	C572.028625,202.318497 575.243225,210.279602 573.763916,223.373413 
	C572.828918,231.650360 568.179443,236.987259 560.026978,238.113571 
	C556.528748,238.596878 552.845398,237.740311 548.881775,237.354248 
M566.663940,220.101196 
	C566.485657,217.447632 566.542847,214.752167 566.079895,212.149200 
	C565.121216,206.758728 561.278381,203.856369 555.760315,204.014359 
	C550.246704,204.172241 546.354553,208.088135 545.889954,213.944824 
	C544.997314,225.197510 547.543823,230.927063 553.928772,232.021103 
	C554.255981,232.077179 554.592041,232.082062 554.924072,232.109131 
	C561.854370,232.674194 565.334839,229.341400 566.663940,220.101196 
z"/>
<path fill="#E85E3A" opacity="1.000000" stroke="none" 
	d="
M806.476501,213.997421 
	C806.484863,217.659576 806.347839,220.833847 806.533630,223.989120 
	C806.879944,229.869339 809.139893,232.146683 814.367249,232.217163 
	C819.771729,232.290054 823.990723,228.853119 824.163818,223.697342 
	C824.404175,216.540543 824.241089,209.370483 824.275024,202.206207 
	C824.280396,201.072952 824.413574,199.940292 824.504150,198.554489 
	C826.865845,198.554489 828.950867,198.554489 831.390503,198.554489 
	C831.390503,211.551407 831.390503,224.456024 831.390503,237.717834 
	C828.513672,237.768845 825.186768,239.805588 823.923218,235.208893 
	C821.507874,236.259827 819.197876,237.647095 816.696838,238.284149 
	C807.853882,240.536575 799.870117,235.507706 799.333008,226.750015 
	C798.765198,217.492310 799.205627,208.172775 799.205627,198.576324 
	C801.628784,198.576324 803.710876,198.576324 806.476807,198.576324 
	C806.476807,203.597580 806.476807,208.549286 806.476501,213.997421 
z"/>
<path fill="#E75A35" opacity="1.000000" stroke="none" 
	d="
M848.006714,198.790649 
	C855.599365,196.764236 862.476379,197.329712 869.219910,201.558380 
	C868.244690,203.319702 867.379089,204.883026 866.810791,205.909378 
	C862.026123,205.219147 857.661255,204.053650 853.344910,204.211731 
	C851.426941,204.281967 849.606812,207.023010 847.742249,208.551743 
	C849.265930,210.213745 850.491211,212.544678 852.380371,213.387131 
	C855.519531,214.787048 859.167664,214.992630 862.452393,216.131027 
	C868.085022,218.083099 870.212830,221.341003 870.173706,226.979767 
	C870.136047,232.417892 867.103638,235.654221 862.300842,237.328781 
	C854.178528,240.160797 846.712463,238.390839 839.176697,233.894043 
	C840.408081,231.779877 841.367126,230.133240 841.765625,229.448990 
	C847.383545,230.428818 852.174072,231.597168 857.027100,231.986481 
	C859.956177,232.221420 863.204956,230.649078 862.708435,227.221344 
	C862.424744,225.262726 859.952209,223.058563 857.925293,222.052139 
	C855.158081,220.678131 851.832092,220.479752 848.825623,219.525528 
	C844.020142,218.000351 840.531250,215.077240 840.338257,209.648422 
	C840.151794,204.404770 842.682495,200.786652 848.006714,198.790649 
z"/>
<path fill="#090909" opacity="1.000000" stroke="none" 
	d="
M606.900513,313.969940 
	C606.900513,299.340454 606.900513,285.204987 606.900513,270.735138 
	C608.843384,270.735138 610.567139,270.735138 612.657654,270.735138 
	C612.657654,281.365997 612.657654,291.939911 612.657654,304.056702 
	C617.947144,298.507233 622.501343,294.086273 626.615967,289.288361 
	C629.419800,286.018951 632.477539,284.720612 636.855652,285.920258 
	C631.904907,290.405975 627.063965,294.792236 622.048889,299.336273 
	C628.192810,308.207397 633.419250,315.753845 638.772278,323.483002 
	C633.783936,324.930206 630.727722,323.581390 628.331726,319.302795 
	C625.594238,314.414459 622.142151,309.926239 619.122742,305.445404 
	C610.505554,309.300690 613.492920,316.943085 612.766418,323.737854 
	C610.952942,323.833954 609.224121,323.925568 606.900513,324.048706 
	C606.900513,320.684235 606.900513,317.574066 606.900513,313.969940 
z"/>
<path fill="#090909" opacity="1.000000" stroke="none" 
	d="
M559.019592,306.017609 
	C559.019592,312.162048 559.019592,317.810333 559.019592,323.718842 
	C557.173218,323.718842 555.599976,323.718842 553.613281,323.718842 
	C553.390991,322.476105 553.142334,321.086212 552.867371,319.549011 
	C552.436462,319.809937 551.977295,319.969971 551.682312,320.284180 
	C547.044189,325.224670 541.295288,325.173157 535.538574,323.356171 
	C530.204041,321.672455 528.562866,318.190796 528.917969,311.432861 
	C529.185669,306.340210 531.650696,302.736877 536.732239,301.928192 
	C541.942444,301.099060 547.271912,301.019135 554.009033,300.498474 
	C552.616211,297.281738 552.147827,293.236664 549.925476,291.653412 
	C544.459717,287.759491 538.852356,290.746338 533.406860,293.584869 
	C532.495850,292.320129 531.641968,291.134644 530.644104,289.749298 
	C536.018677,285.370636 542.047913,284.149231 548.469299,285.145752 
	C555.482178,286.234100 558.951843,290.718719 559.014954,298.021698 
	C559.036560,300.521423 559.019165,303.021515 559.019592,306.017609 
M552.963501,306.582214 
	C548.706299,306.432526 544.421448,305.919189 540.200012,306.239990 
	C536.325745,306.534363 534.599487,309.293518 534.732239,313.198853 
	C534.863770,317.063721 536.977722,318.800598 540.649780,319.167938 
	C549.060974,320.009399 553.012695,316.315460 552.963501,306.582214 
z"/>
<path fill="#0A0A0A" opacity="1.000000" stroke="none" 
	d="
M687.891785,303.109680 
	C687.249512,287.023712 700.577942,282.264832 711.931152,286.032440 
	C718.577332,288.238007 721.432922,293.623749 721.840149,300.169891 
	C722.346680,308.314117 722.952087,316.936707 714.552551,321.910583 
	C708.134033,325.711456 701.080322,325.583344 694.685242,321.664001 
	C687.951660,317.537292 687.624268,310.567657 687.891785,303.109680 
M715.805603,300.161102 
	C713.608765,292.186310 709.714233,289.115234 702.977600,290.045532 
	C697.160767,290.848755 694.053162,295.276855 693.957520,302.929535 
	C693.936768,304.591492 693.931519,306.255798 693.993958,307.916229 
	C694.250610,314.743530 697.985596,318.891144 704.081726,319.160553 
	C710.766785,319.455933 714.903320,315.970795 715.776062,308.986206 
	C716.103455,306.366272 715.862671,303.675415 715.805603,300.161102 
z"/>
<path fill="#E8613F" opacity="1.000000" stroke="none" 
	d="
M690.247681,193.153107 
	C690.323914,191.400848 690.399841,190.106628 690.491760,188.540451 
	C692.853210,188.540451 694.941772,188.540451 697.506042,188.540451 
	C697.506042,191.523743 697.506042,194.450058 697.506042,197.899246 
	C701.150757,198.123062 704.369995,198.320755 707.803345,198.531586 
	C707.803345,200.544525 707.803345,202.319473 707.803345,204.520355 
	C704.660828,204.661407 701.564636,204.800385 697.864319,204.966476 
	C697.864319,212.859558 697.657227,220.631409 698.060547,228.371460 
	C698.130859,229.720840 700.592224,231.367828 702.284668,232.077972 
	C703.658447,232.654434 705.535400,232.031906 707.706909,231.912720 
	C708.126465,233.485443 708.568787,235.143906 708.995911,236.744995 
	C697.369568,241.802765 690.335693,237.280716 690.255554,225.062866 
	C690.212158,218.444016 690.247803,211.824677 690.247803,205.071976 
	C687.921936,204.829269 686.155212,204.644928 684.190918,204.439957 
	C684.190918,202.441299 684.190918,200.664536 684.190918,198.629791 
	C686.015198,198.404480 687.785522,198.185822 689.951416,197.918320 
	C690.048950,196.499344 690.148193,195.055252 690.247681,193.153107 
z"/>
<path fill="#0B0B0B" opacity="1.000000" stroke="none" 
	d="
M747.403076,312.673401 
	C746.363159,310.950073 745.543030,309.517578 744.492310,307.682281 
	C742.008911,311.849091 739.438354,315.525909 737.542847,319.522888 
	C735.675232,323.461029 733.156677,325.030029 728.401428,323.502869 
	C732.525085,317.007629 736.579529,310.621429 740.817322,303.946320 
	C736.986633,298.088165 733.124268,292.181519 729.163696,286.124725 
	C734.017029,284.391205 736.855103,286.009552 738.871521,290.271545 
	C740.423523,293.551971 742.564331,296.553833 744.863708,300.378906 
	C747.332642,296.423248 749.886414,292.994720 751.715698,289.215515 
	C753.562134,285.400848 756.185486,284.920654 760.246216,286.042511 
	C756.838074,291.220245 753.393311,296.046539 750.462219,301.166840 
	C749.635742,302.610443 749.613708,305.308716 750.426270,306.755829 
	C753.581421,312.375153 757.221191,317.722443 760.732117,323.252075 
	C754.251221,324.625702 754.246948,324.628143 751.296997,319.469513 
	C750.060791,317.307678 748.846985,315.133026 747.403076,312.673401 
z"/>
<path fill="#090909" opacity="1.000000" stroke="none" 
	d="
M575.377502,321.775208 
	C568.145569,315.147949 566.406860,298.751221 571.838379,291.139709 
	C577.185303,283.646729 588.777039,282.631531 597.934998,289.069916 
	C597.196899,290.276306 596.446350,291.503174 595.543091,292.979675 
	C594.558289,292.499664 593.726135,292.052734 592.862122,291.679138 
	C582.189636,287.064087 575.581238,291.725739 574.807922,303.223114 
	C573.956055,315.889832 580.384338,323.724274 596.537354,316.133026 
	C597.354675,317.485443 598.185303,318.859833 599.153809,320.462402 
	C591.363892,325.025299 583.691650,325.883392 575.377502,321.775208 
z"/>
<path fill="#E75935" opacity="1.000000" stroke="none" 
	d="
M532.267395,204.665466 
	C521.142822,204.242828 517.900574,207.317078 517.887939,218.242325 
	C517.880493,224.685196 517.886597,231.128067 517.886597,237.790710 
	C515.276001,237.790710 513.175049,237.790710 510.811737,237.790710 
	C510.811737,224.766953 510.811737,211.866257 510.811737,198.617157 
	C514.084717,198.668884 518.261963,196.027359 518.014526,203.023239 
	C522.702820,198.192902 527.775879,196.306671 534.410400,198.735931 
	C533.780518,200.721954 533.194824,202.568451 532.267395,204.665466 
z"/>
<path fill="#0B0B0B" opacity="1.000000" stroke="none" 
	d="
M518.925903,291.000214 
	C518.925903,302.113678 518.925903,312.727203 518.925903,323.742767 
	C516.912292,323.842804 515.186523,323.928558 513.170044,324.028717 
	C513.170044,306.188843 513.170044,288.632324 513.170044,270.732788 
	C514.822571,270.732788 516.541870,270.732788 518.925903,270.732788 
	C518.925903,277.339905 518.925903,283.920074 518.925903,291.000214 
z"/>
<path fill="#E5522C" opacity="1.000000" stroke="none" 
	d="
M79.068481,252.148483 
	C82.011597,178.146820 139.161652,116.660515 211.824280,108.851959 
	C292.717194,100.158951 364.124084,153.421982 377.531616,233.762589 
	C390.956482,314.207184 338.075104,388.718658 260.034851,404.779022 
	C178.715576,421.514191 100.864319,371.126373 82.769737,290.273834 
	C80.036362,278.060242 80.221687,265.193451 79.068481,252.148483 
M239.000061,170.521149 
	C236.649902,164.471100 234.345749,158.402695 231.938492,152.375458 
	C228.573959,143.951447 225.708511,135.494934 229.054306,125.872475 
	C226.519562,126.845062 224.178162,127.937653 222.509216,129.675903 
	C215.470200,137.007217 212.969070,146.133850 212.137070,156.044769 
	C211.415359,164.642090 210.606720,173.312408 208.744888,181.708405 
	C207.240738,188.491470 204.110138,194.913834 201.701050,201.496216 
	C201.165955,201.348663 200.630844,201.201111 200.095749,201.053558 
	C200.019882,199.640594 199.997971,198.222321 199.859528,196.815521 
	C198.843536,186.490448 197.374481,176.223709 191.724503,167.249710 
	C189.857132,164.283737 186.867996,162.024017 184.391754,159.441391 
	C183.979950,159.763016 183.568161,160.084625 183.156357,160.406250 
	C185.762589,170.020447 183.973984,179.245651 180.872604,188.327850 
	C177.915298,196.988174 174.745605,205.577148 171.869370,214.263748 
	C164.792358,235.637283 167.030411,255.617615 181.079437,273.750580 
	C181.226700,273.940643 181.126877,274.322205 181.160858,274.960968 
	C166.509521,271.820038 151.957932,268.700500 136.665771,265.422180 
	C141.156982,280.041504 149.145706,291.403046 158.341675,301.997192 
	C159.180984,302.964111 161.378098,303.043213 162.945282,303.045105 
	C207.100403,303.098053 251.255783,303.132751 295.410309,302.959930 
	C297.692017,302.951019 300.867340,301.712677 302.091400,299.968994 
	C307.994995,291.559052 313.478912,282.845123 318.862854,274.086090 
	C320.255707,271.820068 320.749329,269.001373 322.039124,265.352814 
	C305.360229,268.666534 289.869507,271.744202 273.305634,275.035065 
	C283.783508,261.687561 287.873169,247.496353 286.909119,231.727173 
	C286.142761,219.192062 282.294464,207.722977 276.637878,196.555222 
	C272.312225,188.015213 268.330139,179.094055 265.858246,169.895554 
	C264.228607,163.831375 265.549957,156.974228 265.549957,149.639221 
	C250.314713,167.966202 250.643753,190.409897 247.136078,210.294418 
	C244.620514,197.884247 241.923752,184.580170 239.000061,170.521149 
M238.500015,316.193939 
	C212.079269,316.193939 185.658508,316.193939 159.085724,316.193939 
	C159.085724,325.035217 159.085724,333.255585 159.085724,341.628296 
	C206.105545,341.628296 252.793396,341.628296 299.637604,341.628296 
	C299.637604,333.104797 299.637604,324.885010 299.637604,316.194092 
	C279.382050,316.194092 259.441040,316.194092 238.500015,316.193939 
M188.378876,363.796417 
	C197.213837,383.720337 220.609787,393.410431 243.661926,386.693481 
	C260.607361,381.755920 273.413788,366.668579 271.329651,353.970154 
	C243.277512,353.970154 215.208893,353.970154 186.404327,353.970154 
	C187.027695,357.287659 187.567856,360.162292 188.378876,363.796417 
z"/>
<path fill="#F8F8F8" opacity="1.000000" stroke="none" 
	d="
M492.407196,317.798279 
	C485.924072,318.351624 479.833801,318.776855 473.398010,319.226166 
	C473.398010,312.417877 473.398010,306.363342 473.398010,300.092743 
	C478.794952,300.092743 484.097626,299.788666 489.344788,300.197449 
	C492.965424,300.479492 496.203278,302.309814 496.756866,306.437958 
	C497.335175,310.750275 497.882202,315.260071 492.407196,317.798279 
z"/>
<path fill="#F9F9F9" opacity="1.000000" stroke="none" 
	d="
M474.328857,278.105896 
	C478.963867,278.077911 483.136566,277.953766 487.289429,278.184967 
	C491.532379,278.421204 494.577942,280.208099 494.871338,285.054230 
	C495.184967,290.234039 493.126343,293.733429 488.086060,294.369019 
	C483.368500,294.963898 478.516968,294.496277 472.839386,294.496277 
	C473.172638,289.152893 473.515259,283.659271 474.328857,278.105896 
z"/>
<path fill="#FEFBFA" opacity="1.000000" stroke="none" 
	d="
M473.963043,209.842896 
	C473.898651,203.892685 473.898651,198.428375 473.898651,192.658157 
	C478.954193,192.658157 483.734253,192.329971 488.445831,192.757080 
	C492.564636,193.130478 494.880280,195.865051 495.109375,200.151031 
	C495.344818,204.556244 494.884460,209.292053 489.942017,210.192200 
	C484.799438,211.128830 479.345337,210.354797 473.963043,209.842896 
z"/>
<path fill="#FFFCFB" opacity="1.000000" stroke="none" 
	d="
M667.782959,214.985977 
	C662.989258,214.972748 658.667114,214.964157 654.345032,214.936508 
	C654.025208,214.934464 653.706299,214.795273 653.388000,214.715454 
	C652.396912,208.765457 655.749878,204.385666 661.666870,203.898300 
	C668.054504,203.372147 671.817200,207.165894 671.925720,214.615845 
	C670.727234,214.736649 669.490845,214.861282 667.782959,214.985977 
z"/>
<path fill="#FEFBFA" opacity="1.000000" stroke="none" 
	d="
M777.307434,204.188507 
	C782.423157,206.115051 784.040161,209.767822 783.868042,214.769150 
	C777.485901,214.769150 771.218018,214.769150 764.958435,214.769150 
	C764.125427,207.208755 768.232727,203.570511 777.307434,204.188507 
z"/>
<path fill="#FAFAFA" opacity="1.000000" stroke="none" 
	d="
M654.246582,313.021912 
	C654.023254,308.471527 653.794373,304.310425 653.913818,300.159393 
	C654.083740,294.258118 658.155518,290.304443 664.032227,290.016937 
	C669.743713,289.737518 673.365479,293.003052 674.041809,299.358307 
	C674.355957,302.310303 674.347290,305.314453 674.254883,308.287811 
	C674.107117,313.041626 672.736084,317.284241 667.665222,318.870667 
	C662.504272,320.485291 658.363953,318.626251 654.246582,313.021912 
z"/>
<path fill="#FFFCFB" opacity="1.000000" stroke="none" 
	d="
M566.628540,220.518372 
	C565.334839,229.341400 561.854370,232.674194 554.924072,232.109131 
	C554.592041,232.082062 554.255981,232.077179 553.928772,232.021103 
	C547.543823,230.927063 544.997314,225.197510 545.889954,213.944824 
	C546.354553,208.088135 550.246704,204.172241 555.760315,204.014359 
	C561.278381,203.856369 565.121216,206.758728 566.079895,212.149200 
	C566.542847,214.752167 566.485657,217.447632 566.628540,220.518372 
z"/>
<path fill="#FAFAFA" opacity="1.000000" stroke="none" 
	d="
M552.995789,307.043091 
	C553.012695,316.315460 549.060974,320.009399 540.649780,319.167938 
	C536.977722,318.800598 534.863770,317.063721 534.732239,313.198853 
	C534.599487,309.293518 536.325745,306.534363 540.200012,306.239990 
	C544.421448,305.919189 548.706299,306.432526 552.995789,307.043091 
z"/>
<path fill="#FBFBFB" opacity="1.000000" stroke="none" 
	d="
M715.843262,300.588989 
	C715.862671,303.675415 716.103455,306.366272 715.776062,308.986206 
	C714.903320,315.970795 710.766785,319.455933 704.081726,319.160553 
	C697.985596,318.891144 694.250610,314.743530 693.993958,307.916229 
	C693.931519,306.255798 693.936768,304.591492 693.957520,302.929535 
	C694.053162,295.276855 697.160767,290.848755 702.977600,290.045532 
	C709.714233,289.115234 713.608765,292.186310 715.843262,300.588989 
z"/>
<path fill="#020100" opacity="1.000000" stroke="none" 
	d="
M239.113525,170.898621 
	C241.923752,184.580170 244.620514,197.884247 247.136078,210.294418 
	C250.643753,190.409897 250.314713,167.966202 265.549957,149.639221 
	C265.549957,156.974228 264.228607,163.831375 265.858246,169.895554 
	C268.330139,179.094055 272.312225,188.015213 276.637878,196.555222 
	C282.294464,207.722977 286.142761,219.192062 286.909119,231.727173 
	C287.873169,247.496353 283.783508,261.687561 273.305634,275.035065 
	C289.869507,271.744202 305.360229,268.666534 322.039124,265.352814 
	C320.749329,269.001373 320.255707,271.820068 318.862854,274.086090 
	C313.478912,282.845123 307.994995,291.559052 302.091400,299.968994 
	C300.867340,301.712677 297.692017,302.951019 295.410309,302.959930 
	C251.255783,303.132751 207.100403,303.098053 162.945282,303.045105 
	C161.378098,303.043213 159.180984,302.964111 158.341675,301.997192 
	C149.145706,291.403046 141.156982,280.041504 136.665771,265.422180 
	C151.957932,268.700500 166.509521,271.820038 181.160858,274.960968 
	C181.126877,274.322205 181.226700,273.940643 181.079437,273.750580 
	C167.030411,255.617615 164.792358,235.637283 171.869370,214.263748 
	C174.745605,205.577148 177.915298,196.988174 180.872604,188.327850 
	C183.973984,179.245651 185.762589,170.020447 183.156357,160.406250 
	C183.568161,160.084625 183.979950,159.763016 184.391754,159.441391 
	C186.867996,162.024017 189.857132,164.283737 191.724503,167.249710 
	C197.374481,176.223709 198.843536,186.490448 199.859528,196.815521 
	C199.997971,198.222321 200.019882,199.640594 200.095749,201.053558 
	C200.630844,201.201111 201.165955,201.348663 201.701050,201.496216 
	C204.110138,194.913834 207.240738,188.491470 208.744888,181.708405 
	C210.606720,173.312408 211.415359,164.642090 212.137070,156.044769 
	C212.969070,146.133850 215.470200,137.007217 222.509216,129.675903 
	C224.178162,127.937653 226.519562,126.845062 229.054306,125.872475 
	C225.708511,135.494934 228.573959,143.951447 231.938492,152.375458 
	C234.345749,158.402695 236.649902,164.471100 239.113525,170.898621 
z"/>
<path fill="#040201" opacity="1.000000" stroke="none" 
	d="
M239.000031,316.194031 
	C259.441040,316.194092 279.382050,316.194092 299.637604,316.194092 
	C299.637604,324.885010 299.637604,333.104797 299.637604,341.628296 
	C252.793396,341.628296 206.105545,341.628296 159.085724,341.628296 
	C159.085724,333.255585 159.085724,325.035217 159.085724,316.193939 
	C185.658508,316.193939 212.079269,316.193939 239.000031,316.194031 
z"/>
<path fill="#020100" opacity="1.000000" stroke="none" 
	d="
M188.243439,363.416687 
	C187.567856,360.162292 187.027695,357.287659 186.404327,353.970154 
	C215.208893,353.970154 243.277512,353.970154 271.329651,353.970154 
	C273.413788,366.668579 260.607361,381.755920 243.661926,386.693481 
	C220.609787,393.410431 197.213837,383.720337 188.243439,363.416687 
z"/>
</svg>